<svg xmlns="http://www.w3.org/2000/svg" width="151.163" height="40.329" viewBox="0 0 151.163 40.329"><defs><style>.a{fill:#fff;}</style></defs><g transform="translate(0 0)"><path class="a" d="M177.466,93.356a8.012,8.012,0,0,1,3.816-6.723,8.206,8.206,0,0,0-6.463-3.494c-2.719-.286-5.356,1.627-6.741,1.627-1.413,0-3.545-1.6-5.844-1.552a8.6,8.6,0,0,0-7.243,4.417c-3.132,5.422-.8,13.391,2.2,17.774,1.5,2.148,3.255,4.543,5.551,4.459,2.246-.091,3.085-1.431,5.8-1.431,2.685,0,3.473,1.431,5.815,1.377,2.411-.037,3.928-2.156,5.377-4.322a17.724,17.724,0,0,0,2.459-5.008A7.751,7.751,0,0,1,177.466,93.356Zm-4.423-13.1a7.887,7.887,0,0,0,1.805-5.652,8.034,8.034,0,0,0-5.194,2.687,7.5,7.5,0,0,0-1.852,5.443A6.636,6.636,0,0,0,173.043,80.256Z" transform="translate(-153.504 -74.604)"/><g transform="translate(40.965 16.285)"><path class="a" d="M524.689,234.656H521.55l-1.719-5.4h-5.977l-1.638,5.4H509.16l5.923-18.394h3.657Zm-5.377-7.67-1.555-4.8q-.246-.736-.927-3.465h-.055q-.274,1.173-.874,3.465l-1.529,4.8Zm20.578.875a7.51,7.51,0,0,1-1.839,5.348,5.389,5.389,0,0,1-4.089,1.747,4.092,4.092,0,0,1-3.787-1.881v6.959h-2.947V225.752q0-2.125-.109-4.359h2.592l.164,2.1h.055a5.242,5.242,0,0,1,8.391-.521A7.337,7.337,0,0,1,539.89,227.861Zm-3,.108a5.468,5.468,0,0,0-.874-3.194,3.018,3.018,0,0,0-2.565-1.309,3.064,3.064,0,0,0-1.978.723,3.352,3.352,0,0,0-1.16,1.9,3.847,3.847,0,0,0-.137.9V229.2a3.549,3.549,0,0,0,.887,2.444,2.946,2.946,0,0,0,2.306,1,3.019,3.019,0,0,0,2.591-1.283A5.644,5.644,0,0,0,536.888,227.969Zm18.257-.108a7.514,7.514,0,0,1-1.838,5.348,5.4,5.4,0,0,1-4.09,1.747,4.093,4.093,0,0,1-3.787-1.881v6.959h-2.947V225.752q0-2.125-.109-4.359h2.591l.165,2.1h.055a5.244,5.244,0,0,1,8.393-.521A7.342,7.342,0,0,1,555.145,227.861Zm-3,.108a5.467,5.467,0,0,0-.875-3.194,3.014,3.014,0,0,0-2.562-1.309,3.077,3.077,0,0,0-1.981.723,3.351,3.351,0,0,0-1.158,1.9,3.939,3.939,0,0,0-.138.9V229.2a3.56,3.56,0,0,0,.886,2.444,2.952,2.952,0,0,0,2.308,1,3.016,3.016,0,0,0,2.591-1.283A5.641,5.641,0,0,0,552.142,227.969ZM572.2,229.5a4.913,4.913,0,0,1-1.635,3.822,7.247,7.247,0,0,1-5.01,1.61,8.744,8.744,0,0,1-4.763-1.146l.681-2.456a8.2,8.2,0,0,0,4.257,1.147,4.017,4.017,0,0,0,2.592-.75,2.452,2.452,0,0,0,.931-2,2.568,2.568,0,0,0-.766-1.884,7.1,7.1,0,0,0-2.537-1.418q-4.832-1.8-4.832-5.269a4.651,4.651,0,0,1,1.706-3.711,6.744,6.744,0,0,1,4.517-1.447,8.926,8.926,0,0,1,4.176.873l-.74,2.4a7.3,7.3,0,0,0-3.534-.846,3.593,3.593,0,0,0-2.438.764,2.187,2.187,0,0,0-.74,1.667,2.253,2.253,0,0,0,.848,1.8,9.544,9.544,0,0,0,2.673,1.418,9.064,9.064,0,0,1,3.493,2.236A4.661,4.661,0,0,1,572.2,229.5Zm9.769-5.892h-3.248v6.44q0,2.457,1.719,2.455a5.186,5.186,0,0,0,1.309-.137l.081,2.238a6.673,6.673,0,0,1-2.292.326,3.531,3.531,0,0,1-2.729-1.066,5.225,5.225,0,0,1-.983-3.576V223.6h-1.935v-2.211h1.935v-2.429l2.894-.874v3.3h3.248Zm14.626,4.311a7.273,7.273,0,0,1-1.747,5.021,6.225,6.225,0,0,1-4.856,2.019,5.936,5.936,0,0,1-4.654-1.935,7.054,7.054,0,0,1-1.733-4.885,7.217,7.217,0,0,1,1.787-5.048,6.2,6.2,0,0,1,4.818-1.965,6.06,6.06,0,0,1,4.693,1.938A6.962,6.962,0,0,1,596.6,227.915Zm-3.054.068a5.937,5.937,0,0,0-.79-3.129,2.917,2.917,0,0,0-2.648-1.58,2.959,2.959,0,0,0-2.7,1.58,6.037,6.037,0,0,0-.791,3.185,5.921,5.921,0,0,0,.791,3.131,3.022,3.022,0,0,0,5.325-.026A5.961,5.961,0,0,0,593.541,227.983Zm12.637-4a5.121,5.121,0,0,0-.929-.082,2.781,2.781,0,0,0-2.4,1.175,4.423,4.423,0,0,0-.736,2.619v6.959h-2.947V225.57q0-2.291-.086-4.176h2.567l.108,2.538h.082a4.548,4.548,0,0,1,1.474-2.1,3.561,3.561,0,0,1,2.13-.711,4.729,4.729,0,0,1,.737.054Zm13.18,3.413a6.952,6.952,0,0,1-.108,1.337H610.41a3.847,3.847,0,0,0,1.282,3,4.386,4.386,0,0,0,2.892.926,9.78,9.78,0,0,0,3.577-.626l.462,2.044a11.06,11.06,0,0,1-4.447.82,6.447,6.447,0,0,1-4.846-1.813,6.7,6.7,0,0,1-1.759-4.871,7.6,7.6,0,0,1,1.639-4.992,5.648,5.648,0,0,1,4.638-2.127,4.942,4.942,0,0,1,4.341,2.127A7.158,7.158,0,0,1,619.358,227.4Zm-2.81-.764a4,4,0,0,0-.572-2.265,2.574,2.574,0,0,0-2.347-1.23,2.794,2.794,0,0,0-2.346,1.2,4.4,4.4,0,0,0-.872,2.292Z" transform="translate(-509.16 -215.99)"/></g><g transform="translate(42.063 0.464)"><path class="a" d="M526.322,88.145h-1.544l-.845-2.655H521l-.806,2.655h-1.5L521.6,79.1h1.8Zm-2.643-3.769-.765-2.361c-.08-.242-.228-.8-.456-1.7h-.028c-.094.388-.228.952-.43,1.7l-.75,2.361Zm9.922-2.749-2.469,6.518h-1.408l-2.388-6.518h1.556l1.114,3.447c.188.576.348,1.126.468,1.649h.04c.108-.469.268-1.019.469-1.649l1.1-3.447Zm5.255,6.518-.108-.751h-.04a2.223,2.223,0,0,1-1.9.9,1.9,1.9,0,0,1-2-1.918c0-1.609,1.395-2.441,3.809-2.441v-.12c0-.858-.456-1.288-1.354-1.288a3.044,3.044,0,0,0-1.7.484l-.294-.952a4.172,4.172,0,0,1,2.24-.564c1.7,0,2.562.9,2.562,2.7v2.4a9.67,9.67,0,0,0,.094,1.556Zm-.2-3.247c-1.61,0-2.415.39-2.415,1.314a.923.923,0,0,0,.992,1.019,1.386,1.386,0,0,0,1.423-1.327Zm4.637-4.346a.866.866,0,1,1,.912-.872A.851.851,0,0,1,543.291,80.553Zm.752,7.592h-1.448V81.627h1.448Zm4.023,0h-1.449V78.636h1.449Zm6.156,0-.108-.751h-.04a2.222,2.222,0,0,1-1.9.9,1.9,1.9,0,0,1-2-1.918c0-1.609,1.394-2.441,3.809-2.441v-.12c0-.858-.456-1.288-1.355-1.288a3.045,3.045,0,0,0-1.7.484l-.3-.954a4.175,4.175,0,0,1,2.241-.564c1.7,0,2.563.9,2.563,2.7v2.4a10.044,10.044,0,0,0,.093,1.556h-1.3Zm-.2-3.247c-1.61,0-2.415.39-2.415,1.314a.923.923,0,0,0,.992,1.019,1.386,1.386,0,0,0,1.423-1.327Zm7.279,3.395a2.212,2.212,0,0,1-2.05-1.154h-.029l-.083,1.006H557.9c.04-.522.054-1.114.054-1.757V78.636h1.45v3.945h.028a2.236,2.236,0,0,1,2.079-1.086c1.57,0,2.671,1.342,2.671,3.3C564.182,86.817,562.961,88.293,561.3,88.293ZM561,82.632a1.667,1.667,0,0,0-1.6,1.731V85.5a1.6,1.6,0,0,0,1.572,1.636c1.085,0,1.73-.885,1.73-2.293C562.708,83.532,562.036,82.632,561,82.632Zm6.769,5.514h-1.447V78.636h1.447Zm7.885-2.911h-4.348a1.871,1.871,0,0,0,2.053,1.931,4.892,4.892,0,0,0,1.757-.308l.225,1.006a5.435,5.435,0,0,1-2.185.4,3.026,3.026,0,0,1-3.247-3.285c0-2,1.236-3.5,3.084-3.5,1.663,0,2.71,1.234,2.71,3.1A2.738,2.738,0,0,1,575.657,85.235ZM574.329,84.2c0-1.006-.51-1.717-1.436-1.717a1.72,1.72,0,0,0-1.584,1.717Zm10.109,4.091A3.1,3.1,0,0,1,581.3,84.94a3.175,3.175,0,0,1,3.248-3.447,3.079,3.079,0,0,1,3.139,3.341A3.2,3.2,0,0,1,584.438,88.293Zm.055-5.742c-1.046,0-1.716.979-1.716,2.347,0,1.342.684,2.321,1.7,2.321s1.7-1.046,1.7-2.348C586.182,83.544,585.511,82.552,584.493,82.552Zm10.979,5.594h-1.447V84.4c0-1.153-.443-1.73-1.315-1.73a1.505,1.505,0,0,0-1.45,1.6v3.877h-1.447V83.49c0-.576-.015-1.194-.054-1.865h1.275l.068,1.006h.04a2.339,2.339,0,0,1,2.065-1.14c1.367,0,2.265,1.046,2.265,2.749v3.9Zm9.478-5.432h-1.593v3.165q0,1.209.843,1.208a2.87,2.87,0,0,0,.644-.068l.04,1.1a3.227,3.227,0,0,1-1.125.162c-1.142,0-1.823-.63-1.823-2.281V82.713h-.951V81.627h.951V80.433l1.421-.43v1.623h1.593Zm7.671,5.432h-1.45V84.43c0-1.167-.442-1.757-1.314-1.757a1.419,1.419,0,0,0-1.447,1.542v3.93h-1.45V78.636h1.45v3.916h.028a2.194,2.194,0,0,1,1.959-1.06c1.381,0,2.225,1.073,2.225,2.777Zm7.4-2.911h-4.347a1.869,1.869,0,0,0,2.051,1.931,4.884,4.884,0,0,0,1.757-.308l.227,1.006a5.443,5.443,0,0,1-2.187.4,3.026,3.026,0,0,1-3.247-3.285c0-2,1.236-3.5,3.084-3.5,1.663,0,2.71,1.234,2.71,3.1A2.832,2.832,0,0,1,620.023,85.235ZM618.695,84.2c0-1.006-.508-1.717-1.435-1.717a1.718,1.718,0,0,0-1.584,1.717Z" transform="translate(-518.688 -78.636)"/></g></g></svg>