<svg xmlns="http://www.w3.org/2000/svg" width="153.292" height="37.018" viewBox="0 0 153.292 37.018"><defs><style>.a,.b{fill:#fff;}.a{stroke:#fff;stroke-miterlimit:10;stroke-width:0.2px;}</style></defs><g transform="translate(0 0.16)"><path class="a" d="M59.593,21.45a3.694,3.694,0,0,1-1.019,2.716,3.938,3.938,0,0,1-2.988,1.2,4.074,4.074,0,0,1-3-1.222,4.257,4.257,0,0,1,4.672-6.94,3.449,3.449,0,0,1,1.277.91l-.72.72a2.716,2.716,0,0,0-2.227-.978,3.259,3.259,0,1,0,2.281,5.609,2.607,2.607,0,0,0,.679-1.657h-2.96v-.978h3.952A5.1,5.1,0,0,1,59.593,21.45Z" transform="translate(-12.771 -16.86)"/><path class="a" d="M63.246,18H59.579v2.58H62.92v.978H59.579v2.58h3.667v1H58.52V17h4.726Z" transform="translate(-10.204 -16.81)"/><path class="a" d="M66.157,25.148H65.111V18H62.83V17h5.663v1H66.157Z" transform="translate(-8.661 -16.81)"/><path class="a" d="M69.94,25.148V17h1.046v8.148Z" transform="translate(-6.115 -16.81)"/><path class="a" d="M75.007,25.148H73.962V18H71.68V17h5.6v1H75.007Z" transform="translate(-5.492 -16.81)"/><path class="a" d="M85.5,24.136a4.223,4.223,0,0,1-5.975,0,4.4,4.4,0,0,1,0-6.03,3.979,3.979,0,0,1,2.988-1.236A4.074,4.074,0,0,1,85.5,18.106a4.169,4.169,0,0,1,1.2,3.015A4.074,4.074,0,0,1,85.5,24.136Zm-5.2-.679a3.11,3.11,0,0,0,4.427,0,3.449,3.449,0,0,0,0-4.672,3.11,3.11,0,0,0-4.427,0A3.449,3.449,0,0,0,80.3,23.457Z" transform="translate(-3.111 -16.857)"/><path class="a" d="M85.58,25.148V17h1.263l3.965,6.342h0V17h1.046v8.148H90.768l-4.142-6.641h0v6.641Z" transform="translate(-0.516 -16.81)"/><path class="b" d="M87.9,33.435a5.785,5.785,0,1,0,5.8,5.772,5.69,5.69,0,0,0-5.8-5.772Zm0,9.275a3.5,3.5,0,1,1,3.259-3.5,3.341,3.341,0,0,1-3.259,3.5ZM75.246,33.435a5.785,5.785,0,1,0,5.8,5.772,5.69,5.69,0,0,0-5.8-5.772Zm0,9.275a3.5,3.5,0,1,1,3.259-3.5,3.341,3.341,0,0,1-3.259,3.5ZM60.2,35.214v2.444h5.867a5.12,5.12,0,0,1-1.358,3.083,6,6,0,0,1-4.536,1.793,6.519,6.519,0,1,1,0-13.037,6.3,6.3,0,0,1,4.454,1.752l1.725-1.725A8.555,8.555,0,0,0,60.2,27.052a8.977,8.977,0,1,0,0,17.94,8.243,8.243,0,0,0,6.26-2.512,8.148,8.148,0,0,0,2.119-5.744,8.518,8.518,0,0,0-.122-1.521Zm61.532,1.9a5.336,5.336,0,0,0-10.375,2.091,5.744,5.744,0,0,0,10.538,3.219l-1.969-1.358a3.273,3.273,0,0,1-2.838,1.589,2.92,2.92,0,0,1-2.8-1.752l7.727-3.191Zm-7.877,1.928a3.178,3.178,0,0,1,3.028-3.382,2.227,2.227,0,0,1,2.132,1.236Zm-6.274,5.6h2.54V27.663h-2.54Zm-4.156-9.914h-.1a3.992,3.992,0,0,0-3.042-1.358,5.785,5.785,0,0,0,0,11.557,3.911,3.911,0,0,0,3.042-1.358h.1v.828c0,2.214-1.181,3.4-3.083,3.4a3.2,3.2,0,0,1-2.92-2.051l-2.2.91a5.432,5.432,0,0,0,5.12,3.422c2.974,0,5.432-1.752,5.432-6.016V33.774h-2.349ZM100.5,42.71a3.5,3.5,0,0,1,0-6.994,3.246,3.246,0,0,1,3.1,3.49,3.232,3.232,0,0,1-3.1,3.5Zm33.122-15.047h-6.084V44.638h2.54V38.2h3.544a5.283,5.283,0,1,0,0-10.538Zm0,8.148h-3.544V30.026h3.6a2.906,2.906,0,1,1,0,5.812ZM149.3,33.38a4.739,4.739,0,0,0-4.522,2.594l2.241.937a2.417,2.417,0,0,1,2.322-1.236,2.444,2.444,0,0,1,2.716,2.186v.163a5.676,5.676,0,0,0-2.648-.652c-2.417,0-4.889,1.358-4.889,3.83a3.925,3.925,0,0,0,4.224,3.735,3.6,3.6,0,0,0,3.232-1.657h.081v1.358H154.5V38.106c0-2.974-2.254-4.7-5.147-4.7Zm-.312,9.3c-.828,0-1.983-.421-1.983-1.439,0-1.358,1.44-1.82,2.716-1.82a4.509,4.509,0,0,1,2.309.57,3.069,3.069,0,0,1-2.988,2.716Zm14.422-8.909L160.5,41.135h-.081l-3.015-7.361H154.69l4.522,10.294-2.58,5.717h2.648l6.953-16.011ZM140.594,44.638h2.526V27.663h-2.526Z" transform="translate(-12.942 -13.214)"/><g transform="translate(0 1.321)"><path class="b" d="M6.526,2,22.08,17.441l4.264-4.264L7.491,2.292A2.064,2.064,0,0,0,6.526,2Zm-1.3.718A1.771,1.771,0,0,0,5,3.594V33.6a1.615,1.615,0,0,0,.135.651l15.913-15.8Zm22.422,11.2L23.09,18.451l4.556,4.511,5.566-3.187a1.415,1.415,0,0,0,.022-2.626C32.76,16.894,29.239,14.844,27.646,13.918ZM22.08,19.461,6.392,35.015a1.768,1.768,0,0,0,.808-.224l13.04-7.541,6.127-3.524Z" transform="translate(-5 -2)"/></g></g></svg>