<svg xmlns="http://www.w3.org/2000/svg" width="80" height="80" viewBox="0 0 80 80"><defs><style>.a{fill:#fff;}.b{fill:#326cd8;}</style></defs><g transform="translate(-878 -2173.37)"><circle class="a" cx="40" cy="40" r="40" transform="translate(878 2173.37)"/><g transform="translate(900.415 2192.067)"><path class="b" d="M35.968,9.458,18.411.1a.872.872,0,0,0-.831,0L.509,9.463a.874.874,0,0,0-.454.767V22.45A25.3,25.3,0,0,0,15.221,45.609l2.37,1.033a.873.873,0,0,0,.7,0l2.67-1.153A25.254,25.254,0,0,0,36.431,22.208V10.23a.874.874,0,0,0-.463-.772Zm-1.285,12.75A23.509,23.509,0,0,1,20.272,43.881l-.006,0-2.325,1-2.02-.881A23.553,23.553,0,0,1,1.8,22.45v-11.7l16.2-8.88,16.677,8.887Zm0,0" transform="translate(0 0)"/><path class="b" d="M81.381,149.687a.874.874,0,0,0-1.33,1.135l4.617,5.407a.874.874,0,0,0,1.216.111l10.753-8.749a.874.874,0,0,0-1.1-1.356l-10.091,8.209Zm0,0" transform="translate(-69.824 -127.804)"/></g></g></svg>