<svg xmlns="http://www.w3.org/2000/svg" width="80" height="80" viewBox="0 0 80 80"><defs><style>.a{fill:#fff;}.b{fill:#326cd8;}</style></defs><g transform="translate(-878 -2173.37)"><circle class="a" cx="40" cy="40" r="40" transform="translate(878 2173.37)"/><path class="b" d="M33.584,16.484l7.159-4.09L20.372.825,0,12.394l7.159,4.09L0,20.549l7.159,4.09L0,28.7,20.372,40.343,40.743,28.7,33.584,24.64l7.159-4.09ZM20.372,2.53,37.747,12.4,20.372,22.325,3,12.4ZM8.656,17.339l11.716,6.693,11.716-6.693,5.659,3.214L20.372,30.481,3,20.553ZM37.747,28.709,20.372,38.636,3,28.709l5.66-3.214,11.716,6.693,11.716-6.693Z" transform="translate(898.105 2194.437)"/></g></svg>