<svg xmlns="http://www.w3.org/2000/svg" width="80" height="80" viewBox="0 0 80 80"><defs><style>.a{fill:#fff;}.b{fill:#326cd8;}</style></defs><g transform="translate(-878 -2173.37)"><circle class="a" cx="40" cy="40" r="40" transform="translate(878 2173.37)"/><g transform="translate(829.224 2186.426)"><g transform="translate(75.987 3.944)"><g transform="translate(2.079)"><path class="b" d="M97.065,29.16c.083.018.16.017.4-.165a2.166,2.166,0,0,0,.405-.408l.062-.083c.539-.716,1.8-2.394,3.622-2.3,1.5.109,2.567,1.244,3.078,3.28.018.069.029.112.04.144a1.751,1.751,0,0,0,.4.885.265.265,0,0,0,.323-.421,2.391,2.391,0,0,1-.21-.6.387.387,0,0,0-.014-.044c0-.017-.014-.055-.023-.088a6.593,6.593,0,0,0-.819-1.986,3.457,3.457,0,0,0-2.738-1.694h-.006c-2.1-.108-3.484,1.729-4.074,2.513l-.062.082a1.591,1.591,0,0,1-.418.385.29.29,0,0,0-.063.035.27.27,0,0,0-.1.27A.264.264,0,0,0,97.065,29.16Z" transform="translate(-96.848 -25.669)"/><path class="b" d="M103.675,41.379a1.446,1.446,0,0,0-.922-.749c-.635-.194-1.4.158-2.107.964A11.96,11.96,0,0,1,98.582,43.3,7.242,7.242,0,0,1,97,43.989a.265.265,0,1,0,.14.512,7.7,7.7,0,0,0,1.719-.745,12.449,12.449,0,0,0,2.187-1.811c.428-.49,1.06-.96,1.554-.809a.921.921,0,0,1,.6.471,1.256,1.256,0,0,1-.028.991,3.874,3.874,0,0,1-1.074,1.335,1.529,1.529,0,0,1,.173.256c.037.071.061.146.091.22a4.521,4.521,0,0,0,1.3-1.614A1.781,1.781,0,0,0,103.675,41.379Z" transform="translate(-96.803 -38.286)"/><path class="b" d="M99.941,34.441c-.121.132-.229.275-.345.41a5.466,5.466,0,0,1-.493.5,2.858,2.858,0,0,1-.535.4c-.223.129-.451.258-.683.371a1.431,1.431,0,0,1-.237.091.265.265,0,0,0,.14.512,3.735,3.735,0,0,0,.762-.36,5.325,5.325,0,0,0,.6-.368,5.82,5.82,0,0,0,.982-.971c.119-.146.246-.284.378-.418q.109-.109.224-.212c.04-.035.081-.07.122-.1l.063-.051.058-.046a3.9,3.9,0,0,1,.588-.373,2.4,2.4,0,0,1,.629-.22,1.217,1.217,0,0,1,.155-.024.27.27,0,0,0,.266-.265.265.265,0,0,0-.266-.265A3.925,3.925,0,0,0,99.941,34.441Z" transform="translate(-97.353 -31.912)"/><path class="b" d="M123.721,50.465a7.782,7.782,0,0,0,1.066-1.192.265.265,0,1,0-.431-.308,7.558,7.558,0,0,1-1.238,1.332A2.481,2.481,0,0,1,123.721,50.465Z" transform="translate(-119.074 -45.291)"/><path class="b" d="M143.321,59.948a1.017,1.017,0,0,1-.343-.652c-.055-.337-.566-.193-.511.141a1.44,1.44,0,0,0,.4.79h.935A2.019,2.019,0,0,1,143.321,59.948Z" transform="translate(-135.446 -53.966)"/></g></g><path class="b" d="M107.148,76.056a4.58,4.58,0,0,0-.977-3.457,6.12,6.12,0,0,0-3.616-1.9,3.8,3.8,0,0,0-2.147-2.323,3.435,3.435,0,0,0-1.205-.211,4.9,4.9,0,0,0-1.793.372,3.626,3.626,0,0,0-2.272-1.919,3.3,3.3,0,0,0-.808-.1,4.871,4.871,0,0,0-2.263.637c-.193-1.285-.445-4.338-.632-6.585v-.025c-.415-5.028-.546-6.374-.769-6.765-.283-.975-1.5-2.4-2.715-2.316-.8.049-1.813.709-2.071,3.575,0,10.094-.284,17.558-.346,19.076a6.267,6.267,0,0,0-1.805,1.437c-2.883,3.183-1.516,5.523-1.457,5.619,2.2,3.857,6.756,11.452,6.8,11.522l.089.147.044-.027v.069h14.557l.538.159.752-2.573C108.07,84.7,107.251,76.909,107.148,76.056ZM83.182,80.648c-.042-.074-1.005-1.81,1.336-4.4A4.426,4.426,0,0,1,86.181,75l.372-.1.016-.384c0-.06.362-7.865.359-19.424.141-1.555.556-2.54,1.082-2.572h.024c.651,0,1.51,1.031,1.638,1.63l.075.352.044.008c.16.895.4,3.79.592,6.128.634,7.68.711,7.7,1.212,7.853l.258.076.213-.163a4.253,4.253,0,0,1,2.263-.826,2.229,2.229,0,0,1,.55.067,2.877,2.877,0,0,1,1.807,1.807l.238.534.505-.293a4.111,4.111,0,0,1,1.772-.467,2.364,2.364,0,0,1,.837.144,2.969,2.969,0,0,1,1.635,1.986l.112.323.34.032a5.4,5.4,0,0,1,3.234,1.57A3.571,3.571,0,0,1,106.1,76l0,.077.006.033c.039.336.937,8.3-2.021,13.968l-.513,1.731h-13.8C88.8,90.191,85.091,83.987,83.182,80.648Z" transform="translate(-6.119 -43.554)"/></g></g></svg>