<svg xmlns="http://www.w3.org/2000/svg" width="80" height="80" viewBox="0 0 80 80"><defs><style>.a{fill:#fff;}.b{fill:#326cd8;}</style></defs><g transform="translate(-878 -2173.37)"><circle class="a" cx="40" cy="40" r="40" transform="translate(878 2173.37)"/><g transform="translate(892 2094.065)"><path class="b" d="M39.8,107.3c-5.641,0-11.813,8.09-13.785,10.9-1.991-2.831-8.143-10.873-13.767-10.873a12.245,12.245,0,1,0,0,24.491c5.641,0,11.813-8.09,13.785-10.9C28.021,123.754,34.174,131.8,39.8,131.8a12.245,12.245,0,1,0,0-24.491ZM12.245,130.29a10.715,10.715,0,1,1,0-21.429c5.2,0,11.465,8.692,12.854,10.715C23.71,121.6,17.441,130.29,12.245,130.29Zm27.552-.025c-5.2,0-11.465-8.692-12.854-10.715,1.388-2.023,7.658-10.715,12.854-10.715a10.715,10.715,0,1,1,0,21.429Z" transform="translate(0 0)"/></g></g></svg>